<?xml version="1.0" encoding="utf-8"?>
<!-- Generator: Adobe Illustrator 19.2.1, SVG Export Plug-In . SVG Version: 6.00 Build 0)  -->
<svg version="1.1" xmlns="http://www.w3.org/2000/svg" xmlns:xlink="http://www.w3.org/1999/xlink" x="0px" y="0px"
	 viewBox="0 0 2000 600" style="enable-background:new 0 0 2000 600;" xml:space="preserve">
<style type="text/css">
	.st0{fill:#FDFDFE;}
	.st1{clip-path:url(#SVGID_2_);}
	.st2{fill:none;stroke:#E5E5E5;stroke-width:2;stroke-miterlimit:10;}
	.st3{clip-path:url(#SVGID_4_);}
</style>
<g id="Layer_2">
	<rect class="st0" width="2000" height="600"/>
</g>
<g id="Layer_1">
</g>
<g id="Layer_3">
	<g>
		<defs>
			<rect id="SVGID_1_" x="-2" y="2" width="2000" height="300"/>
		</defs>
		<clipPath id="SVGID_2_">
			<use xlink:href="#SVGID_1_"  style="overflow:visible;"/>
		</clipPath>
		<g class="st1">
			<line class="st2" x1="1660.7" y1="-341.3" x2="2628.6" y2="626.6"/>
			<line class="st2" x1="1628" y1="-341.2" x2="2596" y2="626.8"/>
			<line class="st2" x1="1595.4" y1="-341" x2="2563.3" y2="627"/>
			<line class="st2" x1="1562.7" y1="-340.8" x2="2530.6" y2="627.1"/>
			<line class="st2" x1="1530" y1="-340.7" x2="2498" y2="627.3"/>
			<line class="st2" x1="1497.4" y1="-340.5" x2="2465.3" y2="627.4"/>
			<line class="st2" x1="1464.7" y1="-340.3" x2="2432.7" y2="627.6"/>
			<line class="st2" x1="1432" y1="-340.2" x2="2400" y2="627.8"/>
			<line class="st2" x1="1399.4" y1="-340" x2="2367.3" y2="627.9"/>
			<line class="st2" x1="1366.7" y1="-339.8" x2="2334.7" y2="628.1"/>
			<line class="st2" x1="1334.1" y1="-339.7" x2="2302" y2="628.3"/>
			<line class="st2" x1="1301.4" y1="-339.5" x2="2269.3" y2="628.4"/>
			<line class="st2" x1="1268.7" y1="-339.4" x2="2236.7" y2="628.6"/>
			<line class="st2" x1="1236.1" y1="-339.2" x2="2204" y2="628.8"/>
			<line class="st2" x1="1203.4" y1="-339" x2="2171.4" y2="628.9"/>
			<line class="st2" x1="1170.8" y1="-338.9" x2="2138.7" y2="629.1"/>
			<line class="st2" x1="1138.1" y1="-338.7" x2="2106" y2="629.2"/>
			<line class="st2" x1="1105.4" y1="-338.5" x2="2073.4" y2="629.4"/>
			<line class="st2" x1="1072.8" y1="-338.4" x2="2040.7" y2="629.6"/>
			<line class="st2" x1="1040.1" y1="-338.2" x2="2008" y2="629.7"/>
			<line class="st2" x1="1007.4" y1="-338" x2="1975.4" y2="629.9"/>
			<line class="st2" x1="974.8" y1="-337.9" x2="1942.7" y2="630.1"/>
			<line class="st2" x1="942.1" y1="-337.7" x2="1910.1" y2="630.2"/>
			<line class="st2" x1="909.5" y1="-337.6" x2="1877.4" y2="630.4"/>
			<line class="st2" x1="876.8" y1="-337.4" x2="1844.7" y2="630.6"/>
			<line class="st2" x1="844.1" y1="-337.2" x2="1812.1" y2="630.7"/>
			<line class="st2" x1="811.5" y1="-337.1" x2="1779.4" y2="630.9"/>
			<line class="st2" x1="778.8" y1="-336.9" x2="1746.8" y2="631"/>
			<line class="st2" x1="746.2" y1="-336.7" x2="1714.1" y2="631.2"/>
			<line class="st2" x1="713.5" y1="-336.6" x2="1681.4" y2="631.4"/>
			<line class="st2" x1="680.8" y1="-336.4" x2="1648.8" y2="631.5"/>
			<line class="st2" x1="648.2" y1="-336.2" x2="1616.1" y2="631.7"/>
			<line class="st2" x1="615.5" y1="-336.1" x2="1583.4" y2="631.9"/>
			<line class="st2" x1="582.8" y1="-335.9" x2="1550.8" y2="632"/>
			<line class="st2" x1="550.2" y1="-335.8" x2="1518.1" y2="632.2"/>
			<line class="st2" x1="517.5" y1="-335.6" x2="1485.5" y2="632.4"/>
			<line class="st2" x1="484.9" y1="-335.4" x2="1452.8" y2="632.5"/>
			<line class="st2" x1="452.2" y1="-335.3" x2="1420.1" y2="632.7"/>
			<line class="st2" x1="419.5" y1="-335.1" x2="1387.5" y2="632.8"/>
			<line class="st2" x1="386.9" y1="-334.9" x2="1354.8" y2="633"/>
			<line class="st2" x1="354.2" y1="-334.8" x2="1322.2" y2="633.2"/>
			<line class="st2" x1="321.5" y1="-334.6" x2="1289.5" y2="633.3"/>
			<line class="st2" x1="288.9" y1="-334.4" x2="1256.8" y2="633.5"/>
			<line class="st2" x1="256.2" y1="-334.3" x2="1224.2" y2="633.7"/>
			<line class="st2" x1="223.6" y1="-334.1" x2="1191.5" y2="633.8"/>
			<line class="st2" x1="190.9" y1="-333.9" x2="1158.8" y2="634"/>
			<line class="st2" x1="158.2" y1="-333.8" x2="1126.2" y2="634.2"/>
			<line class="st2" x1="125.6" y1="-333.6" x2="1093.5" y2="634.3"/>
			<line class="st2" x1="92.9" y1="-333.5" x2="1060.9" y2="634.5"/>
			<line class="st2" x1="60.3" y1="-333.3" x2="1028.2" y2="634.6"/>
			<line class="st2" x1="27.6" y1="-333.1" x2="995.5" y2="634.8"/>
			<line class="st2" x1="-5.1" y1="-333" x2="962.9" y2="635"/>
			<line class="st2" x1="-37.7" y1="-332.8" x2="930.2" y2="635.1"/>
			<line class="st2" x1="-70.4" y1="-332.6" x2="897.5" y2="635.3"/>
			<line class="st2" x1="-103.1" y1="-332.5" x2="864.9" y2="635.5"/>
			<line class="st2" x1="-135.7" y1="-332.3" x2="832.2" y2="635.6"/>
			<line class="st2" x1="-168.4" y1="-332.1" x2="799.6" y2="635.8"/>
			<line class="st2" x1="-201" y1="-332" x2="766.9" y2="636"/>
			<line class="st2" x1="-233.7" y1="-331.8" x2="734.2" y2="636.1"/>
			<line class="st2" x1="-266.4" y1="-331.7" x2="701.6" y2="636.3"/>
			<line class="st2" x1="-299" y1="-331.5" x2="668.9" y2="636.4"/>
			<line class="st2" x1="-331.7" y1="-331.3" x2="636.3" y2="636.6"/>
			<line class="st2" x1="-364.4" y1="-331.2" x2="603.6" y2="636.8"/>
			<line class="st2" x1="-397" y1="-331" x2="570.9" y2="636.9"/>
			<line class="st2" x1="-429.7" y1="-330.8" x2="538.3" y2="637.1"/>
			<line class="st2" x1="-462.3" y1="-330.7" x2="505.6" y2="637.3"/>
			<line class="st2" x1="-495" y1="-330.5" x2="472.9" y2="637.4"/>
			<line class="st2" x1="-527.7" y1="-330.3" x2="440.3" y2="637.6"/>
			<line class="st2" x1="-560.3" y1="-330.2" x2="407.6" y2="637.8"/>
			<line class="st2" x1="-593" y1="-330" x2="375" y2="637.9"/>
			<line class="st2" x1="-625.6" y1="-329.9" x2="342.3" y2="638.1"/>
			<line class="st2" x1="-658.3" y1="-329.7" x2="309.6" y2="638.3"/>
		</g>
	</g>
	<g>
		<defs>
			<rect id="SVGID_3_" x="0.6" y="300" width="2000" height="300"/>
		</defs>
		<clipPath id="SVGID_4_">
			<use xlink:href="#SVGID_3_"  style="overflow:visible;"/>
		</clipPath>
		<g class="st3">
			<line class="st2" x1="1663.3" y1="-43.3" x2="2631.2" y2="924.6"/>
			<line class="st2" x1="1630.6" y1="-43.2" x2="2598.6" y2="924.8"/>
			<line class="st2" x1="1598" y1="-43" x2="2565.9" y2="925"/>
			<line class="st2" x1="1565.3" y1="-42.8" x2="2533.2" y2="925.1"/>
			<line class="st2" x1="1532.6" y1="-42.7" x2="2500.6" y2="925.3"/>
			<line class="st2" x1="1500" y1="-42.5" x2="2467.9" y2="925.4"/>
			<line class="st2" x1="1467.3" y1="-42.3" x2="2435.3" y2="925.6"/>
			<line class="st2" x1="1434.6" y1="-42.2" x2="2402.6" y2="925.8"/>
			<line class="st2" x1="1402" y1="-42" x2="2369.9" y2="925.9"/>
			<line class="st2" x1="1369.3" y1="-41.8" x2="2337.3" y2="926.1"/>
			<line class="st2" x1="1336.7" y1="-41.7" x2="2304.6" y2="926.3"/>
			<line class="st2" x1="1304" y1="-41.5" x2="2271.9" y2="926.4"/>
			<line class="st2" x1="1271.3" y1="-41.4" x2="2239.3" y2="926.6"/>
			<line class="st2" x1="1238.7" y1="-41.2" x2="2206.6" y2="926.8"/>
			<line class="st2" x1="1206" y1="-41" x2="2174" y2="926.9"/>
			<line class="st2" x1="1173.4" y1="-40.9" x2="2141.3" y2="927.1"/>
			<line class="st2" x1="1140.7" y1="-40.7" x2="2108.6" y2="927.2"/>
			<line class="st2" x1="1108" y1="-40.5" x2="2076" y2="927.4"/>
			<line class="st2" x1="1075.4" y1="-40.4" x2="2043.3" y2="927.6"/>
			<line class="st2" x1="1042.7" y1="-40.2" x2="2010.6" y2="927.7"/>
			<line class="st2" x1="1010" y1="-40" x2="1978" y2="927.9"/>
			<line class="st2" x1="977.4" y1="-39.9" x2="1945.3" y2="928.1"/>
			<line class="st2" x1="944.7" y1="-39.7" x2="1912.7" y2="928.2"/>
			<line class="st2" x1="912.1" y1="-39.6" x2="1880" y2="928.4"/>
			<line class="st2" x1="879.4" y1="-39.4" x2="1847.3" y2="928.6"/>
			<line class="st2" x1="846.7" y1="-39.2" x2="1814.7" y2="928.7"/>
			<line class="st2" x1="814.1" y1="-39.1" x2="1782" y2="928.9"/>
			<line class="st2" x1="781.4" y1="-38.9" x2="1749.4" y2="929"/>
			<line class="st2" x1="748.8" y1="-38.7" x2="1716.7" y2="929.2"/>
			<line class="st2" x1="716.1" y1="-38.6" x2="1684" y2="929.4"/>
			<line class="st2" x1="683.4" y1="-38.4" x2="1651.4" y2="929.5"/>
			<line class="st2" x1="650.8" y1="-38.2" x2="1618.7" y2="929.7"/>
			<line class="st2" x1="618.1" y1="-38.1" x2="1586" y2="929.9"/>
			<line class="st2" x1="585.4" y1="-37.9" x2="1553.4" y2="930"/>
			<line class="st2" x1="552.8" y1="-37.8" x2="1520.7" y2="930.2"/>
			<line class="st2" x1="520.1" y1="-37.6" x2="1488.1" y2="930.4"/>
			<line class="st2" x1="487.5" y1="-37.4" x2="1455.4" y2="930.5"/>
			<line class="st2" x1="454.8" y1="-37.3" x2="1422.7" y2="930.7"/>
			<line class="st2" x1="422.1" y1="-37.1" x2="1390.1" y2="930.8"/>
			<line class="st2" x1="389.5" y1="-36.9" x2="1357.4" y2="931"/>
			<line class="st2" x1="356.8" y1="-36.8" x2="1324.8" y2="931.2"/>
			<line class="st2" x1="324.1" y1="-36.6" x2="1292.1" y2="931.3"/>
			<line class="st2" x1="291.5" y1="-36.4" x2="1259.4" y2="931.5"/>
			<line class="st2" x1="258.8" y1="-36.3" x2="1226.8" y2="931.7"/>
			<line class="st2" x1="226.2" y1="-36.1" x2="1194.1" y2="931.8"/>
			<line class="st2" x1="193.5" y1="-35.9" x2="1161.4" y2="932"/>
			<line class="st2" x1="160.8" y1="-35.8" x2="1128.8" y2="932.2"/>
			<line class="st2" x1="128.2" y1="-35.6" x2="1096.1" y2="932.3"/>
			<line class="st2" x1="95.5" y1="-35.5" x2="1063.5" y2="932.5"/>
			<line class="st2" x1="62.9" y1="-35.3" x2="1030.8" y2="932.6"/>
			<line class="st2" x1="30.2" y1="-35.1" x2="998.1" y2="932.8"/>
			<line class="st2" x1="-2.5" y1="-35" x2="965.5" y2="933"/>
			<line class="st2" x1="-35.1" y1="-34.8" x2="932.8" y2="933.1"/>
			<line class="st2" x1="-67.8" y1="-34.6" x2="900.1" y2="933.3"/>
			<line class="st2" x1="-100.5" y1="-34.5" x2="867.5" y2="933.5"/>
			<line class="st2" x1="-133.1" y1="-34.3" x2="834.8" y2="933.6"/>
			<line class="st2" x1="-165.8" y1="-34.1" x2="802.2" y2="933.8"/>
			<line class="st2" x1="-198.4" y1="-34" x2="769.5" y2="934"/>
			<line class="st2" x1="-231.1" y1="-33.8" x2="736.8" y2="934.1"/>
			<line class="st2" x1="-263.8" y1="-33.7" x2="704.2" y2="934.3"/>
			<line class="st2" x1="-296.4" y1="-33.5" x2="671.5" y2="934.4"/>
			<line class="st2" x1="-329.1" y1="-33.3" x2="638.9" y2="934.6"/>
			<line class="st2" x1="-361.8" y1="-33.2" x2="606.2" y2="934.8"/>
			<line class="st2" x1="-394.4" y1="-33" x2="573.5" y2="934.9"/>
			<line class="st2" x1="-427.1" y1="-32.8" x2="540.9" y2="935.1"/>
			<line class="st2" x1="-459.7" y1="-32.7" x2="508.2" y2="935.3"/>
			<line class="st2" x1="-492.4" y1="-32.5" x2="475.5" y2="935.4"/>
			<line class="st2" x1="-525.1" y1="-32.3" x2="442.9" y2="935.6"/>
			<line class="st2" x1="-557.7" y1="-32.2" x2="410.2" y2="935.8"/>
			<line class="st2" x1="-590.4" y1="-32" x2="377.6" y2="935.9"/>
			<line class="st2" x1="-623" y1="-31.9" x2="344.9" y2="936.1"/>
			<line class="st2" x1="-655.7" y1="-31.7" x2="312.2" y2="936.3"/>
		</g>
	</g>
</g>
</svg>
