<svg id="Layer_2" data-name="Layer 2" xmlns="http://www.w3.org/2000/svg" xmlns:xlink="http://www.w3.org/1999/xlink" viewBox="0 0 3288.35 980.98"><defs><style>.cls-1,.cls-4{fill:none;}.cls-2{fill:#fff;stroke:#e2e2e2;}.cls-2,.cls-4{stroke-miterlimit:10;}.cls-3{clip-path:url(#clip-path);}.cls-4{stroke:#ccc;stroke-width:2px;}</style><clipPath id="clip-path" transform="translate(657.02 344.02)"><rect class="cls-1" width="2000" height="300"/></clipPath></defs><title>get-pattern</title><rect class="cls-2" x="657.02" y="344.02" width="2000" height="300"/><g class="cls-3"><line class="cls-4" x1="2319.7" y1="0.71" x2="3287.64" y2="968.65"/><line class="cls-4" x1="2287.04" y1="0.87" x2="3254.98" y2="968.81"/><line class="cls-4" x1="2254.37" y1="1.03" x2="3222.32" y2="968.98"/><line class="cls-4" x1="2221.71" y1="1.2" x2="3189.65" y2="969.14"/><line class="cls-4" x1="2189.05" y1="1.36" x2="3156.99" y2="969.3"/><line class="cls-4" x1="2156.39" y1="1.53" x2="3124.33" y2="969.47"/><line class="cls-4" x1="2123.73" y1="1.69" x2="3091.67" y2="969.63"/><line class="cls-4" x1="2091.06" y1="1.85" x2="3059.01" y2="969.8"/><line class="cls-4" x1="2058.4" y1="2.02" x2="3026.35" y2="969.96"/><line class="cls-4" x1="2025.74" y1="2.18" x2="2993.68" y2="970.12"/><line class="cls-4" x1="1993.08" y1="2.34" x2="2961.02" y2="970.29"/><line class="cls-4" x1="1960.42" y1="2.51" x2="2928.36" y2="970.45"/><line class="cls-4" x1="1927.76" y1="2.67" x2="2895.7" y2="970.61"/><line class="cls-4" x1="1895.09" y1="2.84" x2="2863.04" y2="970.78"/><line class="cls-4" x1="1862.43" y1="3" x2="2830.37" y2="970.94"/><line class="cls-4" x1="1829.77" y1="3.16" x2="2797.71" y2="971.11"/><line class="cls-4" x1="1797.11" y1="3.33" x2="2765.05" y2="971.27"/><line class="cls-4" x1="1764.45" y1="3.49" x2="2732.39" y2="971.43"/><line class="cls-4" x1="1731.78" y1="3.65" x2="2699.73" y2="971.6"/><line class="cls-4" x1="1699.12" y1="3.82" x2="2667.07" y2="971.76"/><line class="cls-4" x1="1666.46" y1="3.98" x2="2634.4" y2="971.92"/><line class="cls-4" x1="1633.8" y1="4.15" x2="2601.74" y2="972.09"/><line class="cls-4" x1="1601.14" y1="4.31" x2="2569.08" y2="972.25"/><line class="cls-4" x1="1568.48" y1="4.47" x2="2536.42" y2="972.42"/><line class="cls-4" x1="1535.81" y1="4.64" x2="2503.76" y2="972.58"/><line class="cls-4" x1="1503.15" y1="4.8" x2="2471.09" y2="972.74"/><line class="cls-4" x1="1470.49" y1="4.96" x2="2438.43" y2="972.91"/><line class="cls-4" x1="1437.83" y1="5.13" x2="2405.77" y2="973.07"/><line class="cls-4" x1="1405.17" y1="5.29" x2="2373.11" y2="973.23"/><line class="cls-4" x1="1372.5" y1="5.46" x2="2340.45" y2="973.4"/><line class="cls-4" x1="1339.84" y1="5.62" x2="2307.78" y2="973.56"/><line class="cls-4" x1="1307.18" y1="5.78" x2="2275.12" y2="973.73"/><line class="cls-4" x1="1274.52" y1="5.95" x2="2242.46" y2="973.89"/><line class="cls-4" x1="1241.86" y1="6.11" x2="2209.8" y2="974.05"/><line class="cls-4" x1="1209.2" y1="6.27" x2="2177.14" y2="974.22"/><line class="cls-4" x1="1176.53" y1="6.44" x2="2144.48" y2="974.38"/><line class="cls-4" x1="1143.87" y1="6.6" x2="2111.81" y2="974.54"/><line class="cls-4" x1="1111.21" y1="6.77" x2="2079.15" y2="974.71"/><line class="cls-4" x1="1078.55" y1="6.93" x2="2046.49" y2="974.87"/><line class="cls-4" x1="1045.89" y1="7.09" x2="2013.83" y2="975.04"/><line class="cls-4" x1="1013.22" y1="7.26" x2="1981.17" y2="975.2"/><line class="cls-4" x1="980.56" y1="7.42" x2="1948.5" y2="975.36"/><line class="cls-4" x1="947.9" y1="7.58" x2="1915.84" y2="975.53"/><line class="cls-4" x1="915.24" y1="7.75" x2="1883.18" y2="975.69"/><line class="cls-4" x1="882.58" y1="7.91" x2="1850.52" y2="975.85"/><line class="cls-4" x1="849.91" y1="8.08" x2="1817.86" y2="976.02"/><line class="cls-4" x1="817.25" y1="8.24" x2="1785.2" y2="976.18"/><line class="cls-4" x1="784.59" y1="8.4" x2="1752.53" y2="976.35"/><line class="cls-4" x1="751.93" y1="8.57" x2="1719.87" y2="976.51"/><line class="cls-4" x1="719.27" y1="8.73" x2="1687.21" y2="976.67"/><line class="cls-4" x1="686.61" y1="8.89" x2="1654.55" y2="976.84"/><line class="cls-4" x1="653.94" y1="9.06" x2="1621.89" y2="977"/><line class="cls-4" x1="621.28" y1="9.22" x2="1589.22" y2="977.16"/><line class="cls-4" x1="588.62" y1="9.39" x2="1556.56" y2="977.33"/><line class="cls-4" x1="555.96" y1="9.55" x2="1523.9" y2="977.49"/><line class="cls-4" x1="523.3" y1="9.71" x2="1491.24" y2="977.66"/><line class="cls-4" x1="490.63" y1="9.88" x2="1458.58" y2="977.82"/><line class="cls-4" x1="457.97" y1="10.04" x2="1425.92" y2="977.98"/><line class="cls-4" x1="425.31" y1="10.2" x2="1393.25" y2="978.15"/><line class="cls-4" x1="392.65" y1="10.37" x2="1360.59" y2="978.31"/><line class="cls-4" x1="359.99" y1="10.53" x2="1327.93" y2="978.47"/><line class="cls-4" x1="327.33" y1="10.7" x2="1295.27" y2="978.64"/><line class="cls-4" x1="294.66" y1="10.86" x2="1262.61" y2="978.8"/><line class="cls-4" x1="262" y1="11.02" x2="1229.94" y2="978.97"/><line class="cls-4" x1="229.34" y1="11.19" x2="1197.28" y2="979.13"/><line class="cls-4" x1="196.68" y1="11.35" x2="1164.62" y2="979.29"/><line class="cls-4" x1="164.02" y1="11.51" x2="1131.96" y2="979.46"/><line class="cls-4" x1="131.35" y1="11.68" x2="1099.3" y2="979.62"/><line class="cls-4" x1="98.69" y1="11.84" x2="1066.63" y2="979.78"/><line class="cls-4" x1="66.03" y1="12.01" x2="1033.97" y2="979.95"/><line class="cls-4" x1="33.37" y1="12.17" x2="1001.31" y2="980.11"/><line class="cls-4" x1="0.71" y1="12.33" x2="968.65" y2="980.28"/></g></svg>